<svg width="154" height="43" viewBox="0 0 154 43" fill="none" xmlns="http://www.w3.org/2000/svg">
<g clip-path="url(#clip0_3_43261)">
<path d="M53.7693 12.0769H62.8952C67.4989 12.0769 70.1471 14.7019 70.1471 18.2154C70.1471 20.3154 69.1285 21.9308 67.4989 22.9V23.1019C69.0471 23.7885 70.8804 25.4442 70.8804 28.4327C70.8804 32.7135 67.4174 35.2173 63.5878 35.2173H53.7693V12.0769ZM62.2026 21.3654C63.9545 21.3654 64.973 20.275 64.973 18.7404C64.973 17.3269 63.873 16.3173 62.2434 16.3173H58.8211V21.325H62.2026V21.3654ZM62.2026 30.8154C64.036 30.8154 65.2989 29.8865 65.2989 27.9077C65.2989 26.0096 63.8322 25.1212 62.1211 25.1212H58.7804V30.8154H62.2026Z" fill="white"/>
<path d="M74.1804 29.725V10.4212H79.3545V29.1192C79.3545 30.1692 79.8841 30.6942 80.8212 30.6942H81.473V35.1769H79.7212C76.136 35.1769 74.1804 33.1173 74.1804 29.725Z" fill="white"/>
<path d="M83.51 26.4539C83.51 21.2846 87.2989 17.2866 93.0026 17.2866C98.6248 17.2866 102.454 21.2846 102.454 26.4539C102.454 31.6231 98.6248 35.6212 92.9619 35.6212C87.3396 35.6212 83.51 31.6231 83.51 26.4539ZM97.2396 26.4539C97.2396 23.8289 95.447 21.9308 92.9619 21.9308C90.5174 21.9308 88.7248 23.8289 88.7248 26.4539C88.7248 29.1192 90.5174 30.9769 92.9619 30.9769C95.447 31.0173 97.2396 29.1192 97.2396 26.4539Z" fill="white"/>
<path d="M104.858 26.4539C104.858 21.2846 108.647 17.2866 114.351 17.2866C119.973 17.2866 123.803 21.2846 123.803 26.4539C123.803 31.6231 119.973 35.6212 114.31 35.6212C108.729 35.6212 104.858 31.6231 104.858 26.4539ZM118.629 26.4539C118.629 23.8289 116.836 21.9308 114.351 21.9308C111.906 21.9308 110.114 23.8289 110.114 26.4539C110.114 29.1192 111.906 30.9769 114.351 30.9769C116.795 31.0173 118.629 29.1192 118.629 26.4539Z" fill="white"/>
<path d="M127.266 17.7308H132.114V19.6289H132.399C133.132 18.4577 134.68 17.3269 137.003 17.3269C139.284 17.3269 141.036 18.2154 142.095 19.7096H142.34C143.562 18.0942 145.232 17.3269 147.432 17.3269C151.262 17.3269 153.829 19.8308 153.829 23.4654V35.2173H148.654V25.2423C148.654 23.3442 147.799 22.0519 146.006 22.0519C144.295 22.0519 143.154 23.425 143.154 25.4039V35.1769H137.98V25.0808C137.98 23.3039 137.003 22.0519 135.251 22.0519C133.54 22.0519 132.399 23.4654 132.399 25.3635V35.1769H127.225V17.7308H127.266Z" fill="white"/>
<path opacity="0.3" d="M13.9656 8.36155C13.8026 9.61348 13.8841 10.9058 14.0878 12.2385C15.7989 13.0462 17.4693 14.0962 18.8952 15.3077C24.5989 20.1539 22.3174 22.4558 21.6656 22.6577C22.6026 22.2135 23.3767 20.8404 22.9286 13.5712C22.1952 1.4154 14.536 4.3231 13.9656 8.36155Z" fill="white"/>
<path opacity="0.3" d="M5.5731 25.525C6.71384 26.05 7.9768 26.4135 9.32125 26.575C10.6249 25.2019 12.1731 23.95 13.762 22.9808C20.1583 19.0635 21.7065 21.9712 21.7065 22.6173C21.5842 21.5673 20.4842 20.4366 13.3953 18.6192C1.4583 15.6308 1.8657 23.7481 5.5731 25.525Z" fill="white"/>
<path opacity="0.3" d="M19.4659 38.7308C20.3215 37.8019 21.0547 36.7116 21.6659 35.5404C20.7288 33.8846 20.0362 32.0269 19.5881 30.25C17.8362 23.0212 21.0548 22.4557 21.7066 22.6577C20.6881 22.4557 19.2214 23.1423 15.3103 29.2808C8.71031 39.5789 16.614 41.679 19.4659 38.7308Z" fill="white"/>
<path opacity="0.3" d="M36.4544 29.725C35.8433 28.6346 35.0285 27.625 34.0507 26.6961C32.1767 27.0596 30.1804 27.1404 28.3063 27.0192C20.81 26.4539 21.2989 23.2231 21.7063 22.6981C21.2174 23.6269 21.4211 25.1615 26.0655 30.775C33.9285 40.1442 38.3692 33.3192 36.4544 29.725Z" fill="white"/>
<path opacity="0.3" d="M33.0322 10.9461C31.81 11.1884 30.547 11.6327 29.3655 12.2788C29.1211 14.1365 28.6322 16.075 27.8989 17.7711C25.047 24.6365 22.073 23.1827 21.7063 22.6577C22.4396 23.425 23.9877 23.7077 30.7914 21.0423C42.2395 16.5192 37.1063 10.2192 33.0322 10.9461Z" fill="white"/>
<path fill-rule="evenodd" clip-rule="evenodd" d="M21.8815 6.71515C22.7878 8.21496 23.4193 10.4307 23.6064 13.5301C23.831 17.1744 23.755 19.4061 23.4832 20.8014C23.4005 21.2266 23.2968 21.5889 23.1702 21.8978C23.0906 22.1162 22.9886 22.3106 22.8738 22.4805C22.5949 22.8926 22.215 23.1927 21.8682 23.3001L21.3727 22.0505C21.5019 21.9892 21.6258 21.9008 21.7498 21.7092C21.7993 21.6329 21.8504 21.5374 21.9013 21.4171C21.9619 21.2413 21.9991 21.0234 21.9856 20.7581C21.9386 19.8298 21.2569 18.2007 18.4534 15.8187C17.0771 14.6494 15.4581 13.6308 13.7959 12.8461L13.4705 12.6926L13.4165 12.3393C13.2076 10.9723 13.1182 9.6121 13.2922 8.27541L13.2927 8.27182L13.2932 8.26822C13.4626 7.06912 14.1501 5.98346 15.0761 5.23954C16.0033 4.49454 17.221 4.05257 18.4799 4.22692C19.7585 4.40397 20.9662 5.20049 21.8815 6.71515ZM22.3713 18.0682C21.741 17.099 20.7662 16.0109 19.3372 14.7967C17.9537 13.6212 16.3537 12.5972 14.7087 11.7892C14.5495 10.6209 14.5009 9.51251 14.6386 8.45141C14.7553 7.63249 15.2386 6.84176 15.9312 6.2853C16.6234 5.72916 17.4733 5.44671 18.2921 5.56011C19.0913 5.67081 19.9716 6.17416 20.7165 7.4069C21.4703 8.65438 22.0712 10.6333 22.2508 13.6114L22.2509 13.6122C22.3655 15.4716 22.3984 16.9269 22.3713 18.0682Z" fill="white"/>
<path fill-rule="evenodd" clip-rule="evenodd" d="M16.0283 4.59847C16.7742 4.23938 17.6204 4.07 18.4864 4.19174C19.7669 4.37174 20.9776 5.17173 21.8982 6.69108C22.8101 8.19602 23.4496 10.419 23.647 13.5289L23.6471 13.5301C23.8718 17.1744 23.7957 19.406 23.524 20.8013C23.3873 21.5036 23.1937 22.0344 22.9335 22.4363C22.9244 22.4503 22.9153 22.4641 22.9061 22.4778C23.1075 22.4872 23.35 22.4575 23.6283 22.352C24.5113 22.0175 25.8699 20.8675 27.2705 17.4758L27.2727 17.4706C28.1406 15.4175 28.7021 13.0803 28.82 10.8752C28.9384 8.6602 28.6061 6.64561 27.7591 5.1847C26.6851 3.34978 24.7372 1.84614 21.7064 1.84614C18.9856 1.84614 17.1531 3.05367 16.0283 4.59847ZM14.7451 4.07086C16.0811 2.08443 18.3619 0.5 21.7064 0.5C25.275 0.5 27.6454 2.3073 28.9344 4.51037L28.9357 4.51255C29.9623 6.28231 30.3021 8.58843 30.1761 10.9464C30.0496 13.314 29.4503 15.8016 28.5263 17.9882C27.0754 21.5006 25.5215 23.0759 24.1131 23.6095C23.4013 23.8792 22.7579 23.8686 22.2475 23.7294C21.7714 23.5996 21.3572 23.3402 21.1481 23.0408L20.6945 22.3913L21.4134 22.0505C21.5426 21.9892 21.6665 21.9008 21.7906 21.7092C21.9251 21.5015 22.0727 21.1514 22.1906 20.5462C22.4281 19.3267 22.5151 17.2372 22.2916 13.6124C22.1019 10.6248 21.4938 8.6379 20.7341 7.3842C19.983 6.1448 19.0982 5.63733 18.2958 5.52453C17.4744 5.40907 16.6236 5.69063 15.9313 6.24588C15.2376 6.8023 14.7539 7.59433 14.6381 8.41446L13.2908 8.24682C13.4635 6.70574 13.9413 5.26595 14.7451 4.07086Z" fill="white"/>
<path fill-rule="evenodd" clip-rule="evenodd" d="M3.00742 19.9893C4.16585 17.6422 7.53874 16.4589 13.5614 17.9667L13.5651 17.9676C17.1178 18.8784 19.235 19.6321 20.4903 20.3162C21.1221 20.6605 21.574 21.0073 21.8801 21.3809C22.0891 21.6362 22.2204 21.892 22.2984 22.145C22.3552 22.3105 22.3852 22.4715 22.3852 22.6174L21.0317 22.6945C21.0266 22.6502 21.0188 22.6059 21.0063 22.5609C20.9831 22.4991 20.9349 22.3953 20.8352 22.2723C20.6771 22.0774 20.4054 21.8581 19.9554 21.7375C19.0403 21.4922 17.2597 21.6297 14.1187 23.5534L14.1177 23.554C12.5805 24.4917 11.0788 25.7058 9.81549 27.0363L9.58018 27.2842L9.23934 27.2432C7.82458 27.0732 6.49264 26.6904 5.28696 26.1355L5.28211 26.1333L5.27734 26.131C4.17624 25.6032 3.34546 24.6209 2.91843 23.5171C2.49069 22.4115 2.44665 21.1255 3.00742 19.9893ZM17.5317 20.5289C16.4464 20.153 15.0421 19.7367 13.227 19.2714C7.31397 17.7914 4.92245 19.1724 4.22725 20.5809C3.86119 21.3226 3.86807 22.2123 4.18639 23.0351C4.50478 23.8581 5.11336 24.5555 5.86385 24.9169C6.84395 25.3674 7.92203 25.6925 9.06937 25.8622C10.3607 24.5456 11.8627 23.349 13.4054 22.4079C15.033 21.4112 16.3947 20.821 17.5317 20.5289Z" fill="white"/>
<path fill-rule="evenodd" clip-rule="evenodd" d="M12.5857 12.3264C10.4979 11.5289 8.46972 11.2177 6.81316 11.5643C4.70596 12.004 2.67436 13.3831 1.73774 16.241C0.913379 18.8006 1.52953 20.921 2.65601 22.4485C2.53977 21.6316 2.63725 20.7776 3.02238 19.995C3.58901 18.8437 4.72792 17.9487 6.46804 17.549C8.19146 17.153 10.5197 17.2353 13.5635 18.0076L13.5652 18.008C17.1178 18.9187 19.235 19.6725 20.4903 20.3566C21.1221 20.7009 21.574 21.0477 21.8801 21.4213C21.8887 21.4319 21.8973 21.4425 21.9057 21.4531C21.9756 21.2668 22.0205 21.032 22.0059 20.7427C21.9589 19.811 21.2787 18.1825 18.4572 15.8221L18.4552 15.8204C16.7369 14.3716 14.6634 13.12 12.5857 12.3264ZM19.334 14.7941C17.5081 13.2548 15.3043 11.9222 13.074 11.0703C10.8537 10.2221 8.54305 9.82662 6.53302 10.2471M19.334 14.7941C22.2563 17.2391 23.287 19.1843 23.3622 20.6755C23.4002 21.4291 23.1902 22.0313 22.9003 22.4691C22.6282 22.8802 22.2573 23.1851 21.921 23.2962L21.1276 23.5584L21.0317 22.7348C21.0148 22.5895 20.9693 22.4449 20.8259 22.2699C20.6698 22.0794 20.3807 21.833 19.8361 21.5362C18.7387 20.9382 16.7617 20.2179 13.226 19.3115C10.3017 18.5696 8.20979 18.5306 6.77466 18.8603C5.3561 19.1862 4.59804 19.8637 4.2429 20.5853C3.87924 21.3241 3.88676 22.2131 4.20396 23.0366C4.5219 23.8621 5.12857 24.5605 5.87115 24.9203L5.29194 26.1377C3.87617 25.4999 2.63614 24.6324 1.73683 23.4746C0.270082 21.6226 -0.567735 18.9712 0.444624 15.8298L0.445606 15.8268C1.5462 12.4666 3.99627 10.7766 6.53302 10.2471" fill="white"/>
<path fill-rule="evenodd" clip-rule="evenodd" d="M20.2473 30.0898C20.6834 31.8181 21.3556 33.617 22.2577 35.2111L22.4368 35.5274L22.2687 35.8496C21.6355 37.0631 20.8698 38.2045 19.9671 39.1846L19.9614 39.1907L19.9557 39.1966C19.1094 40.0715 17.9115 40.5532 16.7224 40.6182C15.5317 40.6833 14.2856 40.3326 13.3716 39.4571C12.4437 38.5684 11.9404 37.2187 12.0975 35.4572C12.2531 33.7125 13.0538 31.5462 14.7364 28.9206C16.6972 25.8432 18.0793 24.0759 19.1284 23.1006C19.6562 22.61 20.1298 22.2909 20.581 22.1169C20.8478 22.0139 21.0971 21.9655 21.3314 21.9565C21.5451 21.9438 21.7433 21.964 21.9089 22.0153L21.5732 23.3177C21.5186 23.3069 21.4614 23.3 21.3984 23.3013C21.3269 23.3066 21.2225 23.3236 21.0947 23.3716C20.8599 23.4598 20.5681 23.6472 20.3154 24.0335C19.8005 24.8205 19.3876 26.5405 20.2473 30.0898ZM18.409 25.9667C18.3411 27.1235 18.4848 28.5801 18.9276 30.4072L18.9283 30.4103L18.9291 30.4132C19.3605 32.1238 20.0139 33.9141 20.8942 35.5455C20.3428 36.5504 19.7003 37.4765 18.97 38.2706C18.3904 38.8664 17.5336 39.2257 16.6477 39.2741C15.7607 39.3225 14.9085 39.0573 14.3152 38.489C13.7357 37.934 13.3222 37.0121 13.4503 35.5757C13.5798 34.1226 14.2661 32.1648 15.8832 29.6417L15.8841 29.6402C16.8833 28.0719 17.7136 26.8754 18.409 25.9667Z" fill="white"/>
<path fill-rule="evenodd" clip-rule="evenodd" d="M19.9598 21.7776C19.0512 21.5331 17.2816 21.6694 14.1612 23.5927L14.1598 23.5936C12.2426 24.7691 10.3971 26.3359 8.99256 28.0494C7.58106 29.7715 6.65861 31.5875 6.4932 33.2636L6.49283 33.2673C6.26998 35.4025 6.92607 37.739 9.39349 39.5184C11.5676 41.0724 13.7495 41.1406 15.5962 40.5653C14.7814 40.4203 13.9978 40.0641 13.3707 39.4613C12.4437 38.5704 11.9404 37.2201 12.0975 35.4578C12.2531 33.7125 13.0538 31.5462 14.7364 28.9206C16.6972 25.8432 18.0793 24.0759 19.1284 23.1006C19.6562 22.6099 20.1298 22.2909 20.5809 22.1169C20.5948 22.1115 20.6087 22.1063 20.6225 22.1012C20.4638 21.9742 20.2486 21.8554 19.9598 21.7776ZM21.8949 21.47C22.2054 21.8539 22.3853 22.3008 22.3853 22.6577V23.4787L21.5732 23.3177C21.4385 23.291 21.288 23.2886 21.0735 23.3714C20.8409 23.4611 20.5124 23.6595 20.0574 24.0825C19.1408 24.9346 17.8341 26.5796 15.8841 29.6402L15.8831 29.6417C14.266 32.1648 13.5798 34.1225 13.4503 35.5763C13.3222 37.0132 13.7356 37.937 14.316 38.4949C14.9103 39.0661 15.7636 39.3346 16.6514 39.2909C17.5411 39.2471 18.4003 38.8918 18.9787 38.302L19.9731 39.2183C18.9275 40.3843 17.6543 41.2598 16.3178 41.7452L16.314 41.7468L16.3101 41.748C14.0553 42.5372 11.2902 42.5343 8.59795 40.6094L8.59583 40.6078C5.68706 38.5108 4.87636 35.6793 5.14183 33.1307C5.34358 31.092 6.43755 29.0318 7.9386 27.2006C9.4469 25.3604 11.4103 23.6966 13.4448 22.4492C16.6794 20.4555 18.8616 20.0871 20.3158 20.4786C21.0502 20.6763 21.5638 21.0606 21.8949 21.47Z" fill="white"/>
<path fill-rule="evenodd" clip-rule="evenodd" d="M28.3541 26.3479C30.1796 26.4656 32.1148 26.3858 33.9203 26.0356L34.2662 25.9686L34.5205 26.2102C35.5393 27.178 36.3989 28.2399 37.048 29.3981L37.0515 29.4044L37.0549 29.4107C37.6234 30.4779 37.709 31.7557 37.4006 32.8971C37.0917 34.0403 36.3694 35.1087 35.2473 35.7046C34.108 36.3096 32.6569 36.3746 31.0122 35.6895C29.3835 35.0111 27.5487 33.5947 25.5436 31.2055L25.5405 31.2019C23.2128 28.3885 21.9548 26.5477 21.3466 25.2664C21.1811 24.918 21.0584 24.6001 20.9758 24.3063C20.8853 24.0398 20.8417 23.7807 20.833 23.5395C20.8151 23.0464 20.9434 22.5773 21.1681 22.2877L22.3083 23.0095C22.2381 23.1429 22.1912 23.2915 22.2058 23.5204C22.2124 23.626 22.2326 23.7535 22.2739 23.9082C22.3321 24.0678 22.426 24.2419 22.5721 24.4224C23.1587 25.1473 24.6735 26.0697 28.3541 26.3479ZM23.8714 26.8307C24.5231 27.7647 25.406 28.9164 26.5891 30.3464C28.5148 32.6407 30.1831 33.884 31.5383 34.4485C32.878 35.0066 33.8917 34.8974 34.606 34.518C35.3376 34.1295 35.8579 33.4034 36.0889 32.5488C36.3196 31.6947 36.2433 30.7744 35.8572 30.0454C35.3357 29.1164 34.6516 28.2414 33.8276 27.4218C31.9915 27.7424 30.0675 27.8076 28.2621 27.6909L28.2584 27.6907L28.2548 27.6904C26.3857 27.5494 24.9551 27.2432 23.8714 26.8307Z" fill="white"/>
<path fill-rule="evenodd" clip-rule="evenodd" d="M20.2478 30.0916C20.7811 32.2445 21.7198 34.4651 22.9331 36.3202C24.1521 38.1841 25.6088 39.6195 27.1504 40.2939C29.1668 41.1443 31.5942 41.2545 34.057 39.4801C36.2502 37.8754 37.0104 35.8216 37.0032 33.9093C36.614 34.6461 36.0269 35.2878 35.2461 35.7002C34.1058 36.3027 32.6544 36.3627 31.0103 35.6716C29.382 34.9872 27.5476 33.5632 25.5428 31.164L25.5406 31.1615C23.2129 28.3481 21.9549 26.5073 21.3467 25.226C21.0405 24.581 20.8807 24.0409 20.8505 23.5643C20.8488 23.538 20.8476 23.512 20.8467 23.4863C20.6712 23.5944 20.4841 23.7619 20.3146 24.0197C19.8012 24.8006 19.3872 26.5195 20.2478 30.0916ZM19.1769 23.2847C20.004 22.0266 21.2825 21.8212 21.909 22.0153L22.6841 22.2554L22.3084 22.9691C22.2382 23.1025 22.1914 23.2512 22.2058 23.4801C22.2215 23.7279 22.3113 24.0964 22.5754 24.6529C23.1078 25.7743 24.2736 27.5073 26.5897 30.3066C28.5159 32.6114 30.1847 33.8625 31.5405 34.4324C32.8806 34.9957 33.894 34.8892 34.6074 34.5123C35.338 34.1263 35.8581 33.4019 36.089 32.5481C36.3203 31.6924 36.243 30.7693 35.8541 30.0393L37.0417 29.387C37.8258 30.7255 38.2664 32.1595 38.3545 33.6016L38.355 33.6095L38.3553 33.6174C38.4443 35.9988 37.5442 38.6029 34.8613 40.5647L34.8576 40.5674C31.9449 42.6672 28.9967 42.5367 26.6144 41.5308L26.6106 41.5292L26.6068 41.5275C24.7276 40.707 23.0893 39.0336 21.7936 37.0525C20.4915 35.0616 19.4952 32.6993 18.9285 30.4105L18.9274 30.4064C18.0368 26.7107 18.3562 24.5329 19.1769 23.2847Z" fill="white"/>
<path fill-rule="evenodd" clip-rule="evenodd" d="M37.057 17.8957C35.8955 19.2212 33.9621 20.5142 31.043 21.6675L31.0412 21.6682C27.6312 23.0041 25.4766 23.6271 24.0578 23.805C23.3435 23.8945 22.7738 23.8771 22.3054 23.7546C22.0938 23.6992 21.9096 23.6242 21.7475 23.5345C21.4908 23.4003 21.2792 23.2284 21.1482 23.0408L22.1994 22.1947C22.2561 22.2541 22.3192 22.308 22.4007 22.3542C22.4534 22.3805 22.5222 22.4086 22.6088 22.4324C22.8491 22.4983 23.1968 22.5187 23.6309 22.3562C24.5133 22.0257 25.871 20.8856 27.2712 17.5148L27.273 17.5104L27.2749 17.506C27.9795 15.8763 28.4545 13.9995 28.6924 12.1917L28.7368 11.854L29.0377 11.6895C30.2817 11.0092 31.6106 10.5416 32.8992 10.2861L32.9056 10.2848L32.9121 10.2837C34.1192 10.0683 35.3764 10.3749 36.3787 11.0151C37.3824 11.6562 38.1824 12.6667 38.4017 13.9095C38.6241 15.1705 38.2293 16.5579 37.057 17.8957ZM26.3246 21.908C27.4225 21.5796 28.8015 21.0982 30.5412 20.4166C33.3456 19.3085 35.0633 18.118 36.0317 17.0129C36.9894 15.9201 37.2031 14.9299 37.064 14.1414C36.9217 13.3347 36.39 12.6237 35.6431 12.1467C34.8966 11.6699 33.9871 11.4615 33.1588 11.6074C32.1069 11.8166 31.0209 12.1846 29.991 12.711C29.7268 14.5116 29.2402 16.3763 28.525 18.0318C27.8068 19.7599 27.0633 21.016 26.3246 21.908Z" fill="white"/>
<path fill-rule="evenodd" clip-rule="evenodd" d="M37.2518 11.7505C37.827 12.3424 38.251 13.0869 38.4015 13.9398C38.624 15.2011 38.229 16.5864 37.0559 17.9196C35.8939 19.2401 33.96 20.5253 31.041 21.6683C27.631 23.0042 25.4764 23.6272 24.0576 23.805C23.3434 23.8946 22.7737 23.8772 22.3052 23.7546C22.2811 23.7483 22.2574 23.7418 22.2339 23.735C22.2849 23.9282 22.3872 24.1488 22.5757 24.3803C23.1674 25.1065 24.6938 26.0299 28.3983 26.3077L28.4005 26.3079C30.6528 26.4841 33.0709 26.2971 35.2213 25.7326C37.3806 25.1657 39.2056 24.2358 40.3475 22.9773C41.7567 21.3955 42.609 19.0965 41.6761 16.245C40.8156 13.6886 39.0867 12.345 37.2518 11.7505ZM32.899 10.2862C34.4073 9.98715 35.9444 9.98114 37.3716 10.379L37.376 10.3803C39.6851 11.0405 41.9091 12.6813 42.9651 15.8218L42.9671 15.8268C44.0696 19.1921 43.049 21.98 41.3632 23.8707L41.3595 23.8749C39.9753 25.4018 37.8697 26.4299 35.569 27.0339C33.2587 27.6404 30.6864 27.837 28.2946 27.6499C24.4628 27.3624 22.4655 26.3876 21.5192 25.226C21.0403 24.6381 20.8536 24.027 20.8336 23.5002C20.8148 23.0065 20.9433 22.537 21.1681 22.2474L21.6526 21.6229L22.1992 22.1948C22.3036 22.304 22.4298 22.395 22.6517 22.4531C22.8924 22.516 23.2724 22.5466 23.8873 22.4696C25.1268 22.3142 27.1482 21.7459 30.5419 20.4164C33.3469 19.318 35.0645 18.1347 36.0325 17.0347C36.9893 15.9474 37.2029 14.9601 37.0638 14.1717C36.9214 13.3646 36.3891 12.6504 35.6406 12.168C34.8907 11.6846 33.9767 11.4698 33.146 11.6097L32.899 10.2862Z" fill="white"/>
</g>
<defs>
<clipPath id="clip0_3_43261">
<rect width="154" height="42" fill="white" transform="translate(0 0.5)"/>
</clipPath>
</defs>
</svg>
